HIERARCHY
ROOT hip
{
  OFFSET 0 0 0
  CHANNELS 6 Xposition Yposition Zposition Zrotation Yrotation Xrotation
  JOINT abdomen
  {
    OFFSET 0 20.6881 -0.73152
    CHANNELS 3 Zrotation Xrotation Yrotation
    JOINT chest
    {
      OFFSET 0 11.7043 -0.48768
      CHANNELS 3 Zrotation Xrotation Yrotation
      JOINT neck
      {
        OFFSET 0 22.1894 -2.19456
        CHANNELS 3 Zrotation Xrotation Yrotation
        JOINT head
        {
          OFFSET -0.24384 7.07133 1.2192
          CHANNELS 3 Zrotation Xrotation Yrotation
          JOINT leftEye
          {
            OFFSET 4.14528 8.04674 8.04672
            CHANNELS 3 Zrotation Xrotation Yrotation
            End Site
            {
              OFFSET 1 0 0
            }
          }
          JOINT rightEye
          {
            OFFSET -3.6576 8.04674 8.04672
            CHANNELS 3 Zrotation Xrotation Yrotation
            End Site
            {
              OFFSET 1 0 0
            }
          }
        }
      }
      JOINT rCollar
      {
        OFFSET -2.68224 19.2634 -4.8768
        CHANNELS 3 Zrotation Xrotation Yrotation
        JOINT rShldr
        {
          OFFSET -8.77824 -1.95073 1.46304
          CHANNELS 3 Zrotation Xrotation Yrotation
          JOINT rForeArm
          {
            OFFSET -28.1742 -1.7115 0.48768
            CHANNELS 3 Zrotation Xrotation Yrotation
            JOINT rHand
            {
              OFFSET -22.5879 0.773209 7.07136
              CHANNELS 3 Zrotation Xrotation Yrotation
              JOINT rThumb1
              {
                OFFSET -1.2192 -0.487915 3.41376
                CHANNELS 3 Zrotation Xrotation Yrotation
                JOINT rThumb2
                {
                  OFFSET -3.37035 -0.52449 3.41376
                  CHANNELS 3 Zrotation Xrotation Yrotation
                  End Site
                  {
                    OFFSET -1.78271 -1.18214 1.43049
                  }
                }
              }
              JOINT rIndex1
              {
                OFFSET -7.75947 0.938293 5.60832
                CHANNELS 3 Zrotation Xrotation Yrotation
                JOINT rIndex2
                {
                  OFFSET -2.54057 -0.884171 1.56538
                  CHANNELS 3 Zrotation Xrotation Yrotation
                  End Site
                  {
                    OFFSET -1.62519 -0.234802 1.16502
                  }
                }
              }
              JOINT rMid1
              {
                OFFSET -8.24714 1.18213 3.41376
                CHANNELS 3 Zrotation Xrotation Yrotation
                JOINT rMid2
                {
                  OFFSET -3.10165 -0.590103 1.0647
                  CHANNELS 3 Zrotation Xrotation Yrotation
                  End Site
                  {
                    OFFSET -2.48547 -0.328903 0.83742
                  }
                }
              }
              JOINT rRing1
              {
                OFFSET -8.82822 0.546677 1.51678
                CHANNELS 3 Zrotation Xrotation Yrotation
                JOINT rRing2
                {
                  OFFSET -2.60934 -0.819778 -0.0198488
                  CHANNELS 3 Zrotation Xrotation Yrotation
                  End Site
                  {
                    OFFSET -2.33842 -0.294052 0.168128
                  }
                }
              }
              JOINT rPinky1
              {
                OFFSET -8.27202 -0.0477905 -0.4584
                CHANNELS 3 Zrotation Xrotation Yrotation
                JOINT rPinky2
                {
                  OFFSET -1.82734 -0.647385 -0.700984
                  CHANNELS 3 Zrotation Xrotation Yrotation
                  End Site
                  {
                    OFFSET -1.69225 -0.51767 -0.607171
                  }
                }
              }
            }
          }
        }
      }
      JOINT lCollar
      {
        OFFSET 2.68224 19.2634 -4.8768
        CHANNELS 3 Zrotation Xrotation Yrotation
        JOINT lShldr
        {
          OFFSET 8.77824 -1.95073 1.46304
          CHANNELS 3 Zrotation Xrotation Yrotation
          JOINT lForeArm
          {
            OFFSET 28.1742 -1.7115 0.48768
            CHANNELS 3 Zrotation Xrotation Yrotation
            JOINT lHand
            {
              OFFSET 22.5879 0.773209 7.07136
              CHANNELS 3 Zrotation Xrotation Yrotation
              JOINT lThumb1
              {
                OFFSET 1.2192 -0.487915 3.41376
                CHANNELS 3 Zrotation Xrotation Yrotation
                JOINT lThumb2
                {
                  OFFSET 3.37035 -0.52449 3.41376
                  CHANNELS 3 Zrotation Xrotation Yrotation
                  End Site
                  {
                    OFFSET 1.78271 -1.18214 1.43049
                  }
                }
              }
              JOINT lIndex1
              {
                OFFSET 7.75947 0.938293 5.60832
                CHANNELS 3 Zrotation Xrotation Yrotation
                JOINT lIndex2
                {
                  OFFSET 2.54057 -0.884171 1.56538
                  CHANNELS 3 Zrotation Xrotation Yrotation
                  End Site
                  {
                    OFFSET 1.62519 -0.234802 1.16502
                  }
                }
              }
              JOINT lMid1
              {
                OFFSET 8.24714 1.18213 3.41376
                CHANNELS 3 Zrotation Xrotation Yrotation
                JOINT lMid2
                {
                  OFFSET 3.10165 -0.590103 1.0647
                  CHANNELS 3 Zrotation Xrotation Yrotation
                  End Site
                  {
                    OFFSET 2.48547 -0.328903 0.83742
                  }
                }
              }
              JOINT lRing1
              {
                OFFSET 8.82822 0.546677 1.51678
                CHANNELS 3 Zrotation Xrotation Yrotation
                JOINT lRing2
                {
                  OFFSET 2.60934 -0.819778 -0.0198488
                  CHANNELS 3 Zrotation Xrotation Yrotation
                  End Site
                  {
                    OFFSET 2.33842 -0.294052 0.168128
                  }
                }
              }
              JOINT lPinky1
              {
                OFFSET 8.27202 -0.0477905 -0.4584
                CHANNELS 3 Zrotation Xrotation Yrotation
                JOINT lPinky2
                {
                  OFFSET 1.82734 -0.647385 -0.700984
                  CHANNELS 3 Zrotation Xrotation Yrotation
                  End Site
                  {
                    OFFSET 1.69225 -0.51767 -0.607171
                  }
                }
              }
            }
          }
        }
      }
    }
  }
  JOINT rButtock
  {
    OFFSET -8.77824 4.35084 1.2192
    CHANNELS 3 Zrotation Xrotation Yrotation
    JOINT rThigh
    {
      OFFSET 0 -1.70687 -2.19456
      CHANNELS 3 Zrotation Xrotation Yrotation
      JOINT rShin
      {
        OFFSET 0 -36.8199 0.73152
        CHANNELS 3 Zrotation Xrotation Yrotation
        JOINT rFoot
        {
          OFFSET 0.73152 -45.1104 -5.12064
          CHANNELS 3 Zrotation Xrotation Yrotation
          End Site
          {
            OFFSET -1.1221 -3.69964 12.103
          }
        }
      }
    }
  }
  JOINT lButtock
  {
    OFFSET 8.77824 4.35084 1.2192
    CHANNELS 3 Zrotation Xrotation Yrotation
    JOINT lThigh
    {
      OFFSET 0 -1.70687 -2.19456
      CHANNELS 3 Zrotation Xrotation Yrotation
      JOINT lShin
      {
        OFFSET 0 -36.8199 0.73152
        CHANNELS 3 Zrotation Xrotation Yrotation
        JOINT lFoot
        {
          OFFSET -0.73152 -45.1104 -5.12064
          CHANNELS 3 Zrotation Xrotation Yrotation
          End Site
          {
            OFFSET 1.1221 -3.69964 12.103
          }
        }
      }
    }
  }
}
MOTION
Frames:	9
Frame Time:	0.00833333
122.576 84.3737 -106.124 0.0 0.0 0.0 -1.03703 -0.00414449 -0.0285995 -0.285908 -0.00382826 -0.0495305 -3.24289e-14 1.59028e-15 2.60905e-16 -9.74293e-14 9.54166e-15 7.53208e-16 -0.0 0.0 0.0 -0.0 0.0 0.0 -1.5855e-14 -1.04828e-17 1.98785e-16 -3.3845e-13 -6.39838e-16 2.78299e-15 -5.86027e-12 1.74712e-12 1.01778e-13 -6.71363e-11 -1.79403e-12 4.29375e-13 -1.58354e-10 -9.65137e-14 1.16408e-12 -2.7348e-10 -1.65389e-13 2.02363e-12 -1.5835e-10 -9.62118e-14 1.1609e-12 7.73091 5.47488 0.417314 -1.58355e-10 -9.69075e-14 1.16726e-12 2.90554 0.965183 0.102902 -1.58349e-10 -9.66093e-14 1.16249e-12 10.2786 0.731801 0.0259123 -1.58359e-10 -9.26337e-14 1.17044e-12 2.22167 -0.733487 -0.20892 -1.6051e-14 -7.76503e-18 0.0 -3.4119e-13 -1.55301e-16 7.95139e-16 -5.87314e-12 -1.75527e-12 1.17681e-13 -6.71217e-11 1.73243e-12 4.16653e-13 -1.58348e-10 -5.07876e-14 1.15772e-12 -2.7345e-10 -8.5875e-14 2.00295e-12 -1.58351e-10 -5.24792e-14 1.17044e-12 -7.73091 5.47488 -0.417314 -1.58348e-10 -5.14852e-14 1.15454e-12 -2.90554 0.965183 -0.102902 -1.58352e-10 -5.11871e-14 1.15931e-12 -10.2786 0.731801 -0.0259123 -1.58339e-10 -4.77083e-14 1.15454e-12 -2.22167 -0.733487 0.20892 -2.03217e-16 0.0 -3.88251e-19 -0.272999 -1.9197 -0.0125378 -0.00938387 -2.07854 -0.0775704 -0.513094 3.99654 0.140435 2.03217e-16 0.0 3.88251e-19 -1.3051 -5.55693 0.114034 -0.00020336 4.5098 -0.0271093 0.527542 1.04556 -0.0815741
125.147 82.5208 -111.035 -89.8917 85.2849 -82.5632 -3.11549 3.07667 -2.60201 0.746408 -1.32042 -0.793993 0.396557 0.0288844 -1.2538 2.0595 8.43845 -2.27017 -0.0 0.0 0.0 -0.0 0.0 0.0 -1.49943e-14 -6.21002e-14 -7.07937e-15 20.1524 12.9945 -3.52145 -10.8263 -7.70562 12.8169 0.0233174 -3.39029 -0.473472 -3.12279e-10 6.60399e-10 -7.35629e-10 -5.30306e-10 1.14461e-09 -1.27212e-09 -3.12275e-10 6.60399e-10 -7.35635e-10 7.73091 5.47488 0.417314 -3.1228e-10 6.60398e-10 -7.35628e-10 2.90554 0.965183 0.102902 -3.12275e-10 6.60398e-10 -7.35631e-10 10.2786 0.731801 0.0259123 -3.12283e-10 6.60402e-10 -7.35622e-10 2.22167 -0.733487 -0.20892 -1.51599e-14 -6.21037e-14 -7.33834e-15 -19.575 11.8069 -6.44196 9.16703 -6.03243 -11.722 -0.0916228 -6.72298 0.921525 -1.4746e-10 -1.89155e-10 7.06988e-10 -2.70948e-10 -3.30512e-10 1.22233e-09 -1.47463e-10 -1.89156e-10 7.06999e-10 -7.73091 5.47488 -0.417314 -1.47459e-10 -1.89155e-10 7.06987e-10 -2.90554 0.965183 -0.102902 -1.47463e-10 -1.89155e-10 7.06989e-10 -10.2786 0.731801 -0.0259123 -1.47452e-10 -1.89152e-10 7.06983e-10 -2.22167 -0.733487 0.20892 -2.03217e-16 0.0 -3.88251e-19 0.193103 -9.00321 0.954783 0.0153403 9.01738 0.0960607 -0.184809 -3.86826 0.442219 2.03217e-16 0.0 3.88251e-19 3.16453 -12.3121 -4.06085 -0.0590884 14.0838 -0.245017 0.654828 -6.87543 2.6609
124.853 82.4818 -109.225 -83.8404 85.218 -76.079 -5.00872 6.30848 -5.36 1.79939 -2.70983 -1.586 0.819741 0.0541887 -2.57892 4.99572 17.3237 -4.84036 -0.0 0.0 0.0 -0.0 0.0 0.0 -1.80595e-14 -1.12511e-13 -1.5499e-14 43.38 26.5704 -7.9204 -18.5795 -14.5897 27.0904 -0.0134416 -6.98713 -0.981451 -4.67113e-10 1.42224e-09 -1.57838e-09 -7.87419e-10 2.46486e-09 -2.72926e-09 -4.67109e-10 1.42224e-09 -1.57839e-09 7.73091 5.47488 0.417314 -4.67114e-10 1.42224e-09 -1.57838e-09 2.90554 0.965183 0.102902 -4.67109e-10 1.42224e-09 -1.57838e-09 10.2786 0.731801 0.0259123 -4.67118e-10 1.42224e-09 -1.57837e-09 2.22167 -0.733487 -0.20892 -1.8195e-14 -1.12521e-13 -1.58251e-14 -37.1583 23.7818 -14.2211 16.2245 -11.5838 -24.529 0.0530204 -13.8246 1.9389 -1.2414e-10 -3.9234e-10 1.50339e-09 -2.4915e-10 -6.8589e-10 2.59954e-09 -1.24143e-10 -3.92341e-10 1.5034e-09 -7.73091 5.47488 -0.417314 -1.24139e-10 -3.9234e-10 1.50339e-09 -2.90554 0.965183 -0.102902 -1.24144e-10 -3.9234e-10 1.50339e-09 -10.2786 0.731801 -0.0259123 -1.24134e-10 -3.92337e-10 1.50338e-09 -2.22167 -0.733487 0.20892 -2.03217e-16 0.0 -3.88251e-19 0.96463 -16.4726 2.05349 -0.0355262 20.7465 0.296256 0.255126 -12.1982 0.778028 2.03217e-16 0.0 3.88251e-19 6.76758 -19.3018 -8.76862 -0.0346931 24.2141 -0.504697 1.63573 -15.1871 5.71124
124.677 82.5014 -107.523 -84.7325 85.3092 -76.9229 -6.43587 9.16289 -7.83821 2.70822 -3.95083 -2.28773 1.19346 0.0864873 -3.76141 8.35743 25.1478 -7.44595 -0.0 0.0 0.0 -0.0 0.0 0.0 -1.32728e-14 -1.8628e-13 -2.16357e-14 66.3285 38.3106 -13.1634 -22.5659 -18.4405 40.5717 -0.10041 -10.1681 -1.44056 -6.20129e-10 1.98139e-09 -2.20921e-09 -1.04396e-09 3.43417e-09 -3.82041e-09 -6.20124e-10 1.98139e-09 -2.20923e-09 7.73091 5.47488 0.417314 -6.20129e-10 1.98139e-09 -2.20922e-09 2.90554 0.965183 0.102902 -6.20125e-10 1.98139e-09 -2.20922e-09 10.2786 0.731801 0.0259123 -6.20133e-10 1.98139e-09 -2.20921e-09 2.22167 -0.733487 -0.20892 -1.33775e-14 -1.86295e-13 -2.2015e-14 -49.6111 33.4504 -22.8627 20.4054 -15.055 -36.4057 0.40959 -20.1474 2.92467 -1.25682e-10 -5.67364e-10 2.11865e-09 -2.65943e-10 -9.91364e-10 3.66297e-09 -1.25685e-10 -5.67364e-10 2.11866e-09 -7.73091 5.47488 -0.417314 -1.25682e-10 -5.67363e-10 2.11865e-09 -2.90554 0.965183 -0.102902 -1.25686e-10 -5.67364e-10 2.11865e-09 -10.2786 0.731801 -0.0259123 -1.25678e-10 -5.67361e-10 2.11864e-09 -2.22167 -0.733487 0.20892 -2.03217e-16 0.0 -3.88251e-19 1.89723 -23.1435 3.10414 -0.16203 31.2082 0.514049 0.734175 -19.5948 1.1076 2.03217e-16 0.0 3.88251e-19 8.89917 -25.2927 -13.4378 0.0802219 33.2296 -0.78772 3.33091 -22.5008 8.75988
124.479 82.5261 -105.792 -84.2112 85.2916 -76.285 -7.2951 11.147 -9.53146 3.32989 -4.82342 -2.7592 1.44194 0.136362 -4.58731 11.1809 30.4781 -9.53475 -0.0 0.0 0.0 -0.0 0.0 0.0 1.11435e-14 -3.18444e-13 -2.20651e-14 84.0731 46.1017 -18.074 -24.1224 -19.3276 49.999 -0.189604 -12.3121 -1.75776 -7.68597e-10 2.0338e-09 -2.31025e-09 -1.29907e-09 3.52616e-09 -3.99661e-09 -7.68593e-10 2.0338e-09 -2.31026e-09 7.73091 5.47488 0.417314 -7.68597e-10 2.0338e-09 -2.31026e-09 2.90554 0.965183 0.102902 -7.68594e-10 2.0338e-09 -2.31025e-09 10.2786 0.731801 0.0259123 -7.68601e-10 2.0338e-09 -2.31024e-09 2.22167 -0.733487 -0.20892 1.10716e-14 -3.18462e-13 -2.24627e-14 -56.1891 39.2516 -30.2117 22.3525 -16.2958 -44.753 0.800639 -24.5434 3.67959 -1.8938e-10 -6.71984e-10 2.28106e-09 -3.79211e-10 -1.17208e-09 3.94197e-09 -1.89383e-10 -6.71984e-10 2.28106e-09 -7.73091 5.47488 -0.417314 -1.89379e-10 -6.71984e-10 2.28106e-09 -2.90554 0.965183 -0.102902 -1.89384e-10 -6.71985e-10 2.28105e-09 -10.2786 0.731801 -0.0259123 -1.89376e-10 -6.71983e-10 2.28105e-09 -2.22167 -0.733487 0.20892 -2.03217e-16 0.0 -3.88251e-19 2.65035 -27.845 3.8301 -0.311271 38.5027 0.707128 1.1186 -24.6613 1.35984 2.03217e-16 0.0 3.88251e-19 9.68265 -29.2661 -17.1026 0.228313 39.4598 -1.03291 5.06984 -27.5232 11.2186
124.297 82.5533 -104.121 -82.7925 85.4035 -74.8029 -7.62587 11.9669 -10.067 3.58197 -5.18082 -2.90525 1.51121 0.211211 -4.9141 12.386 32.4321 -10.4132 -0.0 0.0 0.0 -0.0 0.0 0.0 8.1825e-14 -6.2024e-13 -1.14876e-14 91.3467 48.9778 -20.1014 -24.4827 -19.0827 53.2514 -0.22564 -12.9996 -1.86139 -9.89063e-10 1.2028e-09 -1.50859e-09 -1.68943e-09 2.0893e-09 -2.61469e-09 -9.89059e-10 1.2028e-09 -1.5086e-09 7.73091 5.47488 0.417314 -9.89063e-10 1.2028e-09 -1.5086e-09 2.90554 0.965183 0.102902 -9.8906e-10 1.2028e-09 -1.50859e-09 10.2786 0.731801 0.0259123 -9.89066e-10 1.2028e-09 -1.50859e-09 2.22167 -0.733487 -0.20892 8.17938e-14 -6.20256e-13 -1.18475e-14 -58.4475 41.2598 -33.1671 22.8893 -16.3827 -47.7636 0.9866 -26.2305 3.98947 -4.18666e-10 -7.00914e-10 1.70994e-09 -7.60506e-10 -1.21625e-09 2.94895e-09 -4.18669e-10 -7.00913e-10 1.70994e-09 -7.73091 5.47488 -0.417314 -4.18666e-10 -7.00913e-10 1.70994e-09 -2.90554 0.965183 -0.102902 -4.18672e-10 -7.00914e-10 1.70994e-09 -10.2786 0.731801 -0.0259123 -4.18663e-10 -7.00913e-10 1.70993e-09 -2.22167 -0.733487 0.20892 -2.03217e-16 0.0 -3.88251e-19 2.84507 -29.8181 3.92472 -0.388187 41.3763 0.798015 1.27181 -26.4605 1.45624 2.03217e-16 0.0 3.88251e-19 9.74954 -30.7692 -18.7608 0.302942 41.7917 -1.14247 5.9533 -29.4901 12.3774
124.106 82.5748 -102.42 -81.2578 85.4579 -73.1689 -7.64042 11.9689 -9.7588 3.57734 -5.17077 -2.81797 1.4518 0.303961 -4.88438 12.2005 32.0151 -10.2731 -0.0 0.0 0.0 -0.0 0.0 0.0 1.84659e-13 -1.03902e-12 6.80838e-15 90.1166 48.5586 -19.1959 -24.245 -18.7527 52.15 -0.211878 -12.6475 -1.80894 -1.25722e-09 -2.50922e-10 -6.98201e-11 -2.16987e-09 -4.25274e-10 -1.33017e-10 -1.25722e-09 -2.50923e-10 -6.98267e-11 7.73091 5.47488 0.417314 -1.25723e-09 -2.50922e-10 -6.98241e-11 2.90554 0.965183 0.102902 -1.25722e-09 -2.50922e-10 -6.98208e-11 10.2786 0.731801 0.0259123 -1.25723e-09 -2.5092e-10 -6.98146e-11 2.22167 -0.733487 -0.20892 1.84674e-13 -1.03903e-12 6.52573e-15 -58.6156 41.0661 -32.2575 22.6781 -16.1444 -46.9477 0.960608 -25.9888 3.94488 -7.6249e-10 -6.74689e-10 6.19612e-10 -1.32692e-09 -1.16108e-09 1.05563e-09 -7.62492e-10 -6.74687e-10 6.19615e-10 -7.73091 5.47488 -0.417314 -7.62489e-10 -6.74687e-10 6.19618e-10 -2.90554 0.965183 -0.102902 -7.62498e-10 -6.74689e-10 6.19615e-10 -10.2786 0.731801 -0.0259123 -7.62487e-10 -6.74689e-10 6.19608e-10 -2.22167 -0.733487 0.20892 -2.03217e-16 0.0 -3.88251e-19 2.57084 -29.8457 3.52492 -0.379858 41.0921 0.790103 1.23477 -25.927 1.42608 2.03217e-16 0.0 3.88251e-19 9.61012 -30.6195 -18.8046 0.288622 41.3397 -1.12671 5.97185 -29.3297 12.4539
123.923 82.6008 -100.729 -79.6208 85.516 -71.453 -7.52913 11.6373 -9.11255 3.46981 -5.0157 -2.63715 1.345 0.40347 -4.71191 11.4616 30.6673 -9.73203 -0.0 0.0 0.0 -0.0 0.0 0.0 2.70299e-13 -1.36398e-12 2.3365e-14 85.5556 46.8078 -17.176 -23.7179 -18.3001 49.3368 -0.180513 -11.8902 -1.69627 -1.41908e-09 -1.67538e-09 1.36624e-09 -2.46672e-09 -2.88999e-09 2.34505e-09 -1.41908e-09 -1.67538e-09 1.36623e-09 7.73091 5.47488 0.417314 -1.41908e-09 -1.67538e-09 1.36623e-09 2.90554 0.965183 0.102902 -1.41908e-09 -1.67538e-09 1.36624e-09 10.2786 0.731801 0.0259123 -1.41908e-09 -1.67537e-09 1.36624e-09 2.22167 -0.733487 -0.20892 2.70354e-13 -1.36398e-12 2.31642e-14 -57.8976 39.9486 -29.8215 22.1372 -15.7312 -44.6132 0.854022 -25.0188 3.76659 -1.02641e-09 -5.89806e-10 -5.19149e-10 -1.75463e-09 -1.00518e-09 -9.19735e-10 -1.02641e-09 -5.89803e-10 -5.19147e-10 -7.73091 5.47488 -0.417314 -1.02641e-09 -5.89804e-10 -5.19143e-10 -2.90554 0.965183 -0.102902 -1.02642e-09 -5.89805e-10 -5.19145e-10 -10.2786 0.731801 -0.0259123 -1.02641e-09 -5.89807e-10 -5.19151e-10 -2.22167 -0.733487 0.20892 -2.03217e-16 0.0 -3.88251e-19 2.13246 -29.0784 2.96848 -0.336849 39.5245 0.741984 1.12197 -24.4715 1.34247 2.03217e-16 0.0 3.88251e-19 9.39852 -29.8083 -18.18 0.239751 39.7749 -1.06207 5.64285 -28.3358 12.1047
123.74 82.6278 -99.0431 -77.4436 85.5738 -69.1985 -7.48427 11.4578 -8.63444 3.41354 -4.93809 -2.50264 1.2734 0.498482 -4.61047 11.0038 29.829 -9.40455 -0.0 0.0 0.0 -0.0 0.0 0.0 2.89401e-13 -1.38434e-12 2.87244e-14 82.7463 45.7288 -15.7968 -23.2912 -17.8286 47.4397 -0.161004 -11.3622 -1.61834 -1.32064e-09 -2.41858e-09 2.15974e-09 -2.30633e-09 -4.17725e-09 3.71616e-09 -1.32063e-09 -2.41857e-09 2.15974e-09 7.73091 5.47488 0.417314 -1.32064e-09 -2.41857e-09 2.15974e-09 2.90554 0.965183 0.102902 -1.32063e-09 -2.41857e-09 2.15974e-09 10.2786 0.731801 0.0259123 -1.32064e-09 -2.41857e-09 2.15975e-09 2.22167 -0.733487 -0.20892 2.89479e-13 -1.38434e-12 2.85753e-14 -57.5164 39.2259 -28.1993 21.7271 -15.3528 -43.0582 0.799061 -24.5211 3.67579 -1.016e-09 -4.42762e-10 -1.23558e-09 -1.71985e-09 -7.4715e-10 -2.15889e-09 -1.016e-09 -4.42759e-10 -1.23558e-09 -7.73091 5.47488 -0.417314 -1.016e-09 -4.4276e-10 -1.23557e-09 -2.90554 0.965183 -0.102902 -1.01601e-09 -4.42762e-10 -1.23557e-09 -10.2786 0.731801 -0.0259123 -1.01599e-09 -4.42764e-10 -1.23558e-09 -2.22167 -0.733487 0.20892 -2.03217e-16 0.0 -3.88251e-19 1.81106 -28.6709 2.58327 -0.312003 38.5482 0.714026 1.04583 -23.5049 1.27711 2.03217e-16 0.0 3.88251e-19 9.2159 -29.3112 -17.8509 0.210852 38.7687 -1.02493 5.51592 -27.7931 12.0046
